<?xml version="1.0" standalone="no"?>
<!DOCTYPE svg PUBLIC "-//W3C//DTD SVG 20010904//EN"
 "http://www.w3.org/TR/2001/REC-SVG-20010904/DTD/svg10.dtd">
<svg version="1.0" xmlns="http://www.w3.org/2000/svg"
 width="225.000000pt" height="225.000000pt" viewBox="0 0 225.000000 225.000000"
 preserveAspectRatio="xMidYMid meet">

<g transform="translate(0.000000,225.000000) scale(0.100000,-0.100000)"
fill="#000000" stroke="none">
<path d="M1010 2244 c-266 -34 -492 -144 -676 -328 -157 -156 -266 -355 -310
-566 -25 -116 -25 -334 0 -450 91 -433 443 -785 876 -876 116 -25 334 -25 450
0 433 91 785 443 876 876 12 59 18 129 18 225 0 166 -18 263 -75 410 -132 341
-457 616 -814 689 -80 17 -279 28 -345 20z m357 -149 c178 -45 333 -134 464
-264 130 -130 217 -284 265 -466 23 -85 27 -121 27 -240 0 -119 -4 -155 -27
-240 -48 -182 -135 -336 -265 -466 -130 -130 -284 -217 -466 -265 -85 -23
-121 -27 -240 -27 -119 0 -155 4 -240 27 -182 48 -336 135 -466 265 -130 130
-217 284 -265 466 -23 85 -27 121 -27 240 0 119 4 155 27 240 77 292 263 523
533 659 82 41 217 82 313 96 99 13 256 3 367 -25z"/>
<path d="M1575 1621 c-16 -10 -176 -166 -355 -345 l-324 -326 -116 114 c-130
129 -154 140 -228 111 -68 -27 -101 -89 -87 -162 6 -31 35 -66 172 -205 91
-92 180 -174 198 -183 41 -19 88 -19 123 -1 15 8 206 194 424 413 429 431 425
426 399 506 -28 84 -133 124 -206 78z"/>
</g>
</svg>
