<?xml version="1.0" encoding="utf-8"?>
<!-- Generator: Adobe Illustrator 16.0.0, SVG Export Plug-In . SVG Version: 6.00 Build 0)  -->
<!DOCTYPE svg PUBLIC "-//W3C//DTD SVG 1.1//EN" "http://www.w3.org/Graphics/SVG/1.1/DTD/svg11.dtd">
<svg version="1.1" id="Layer_1" xmlns="http://www.w3.org/2000/svg" xmlns:xlink="http://www.w3.org/1999/xlink" x="0px" y="0px"
	 width="24px" height="24px" viewBox="0 0 24 24" enable-background="new 0 0 24 24" xml:space="preserve">
<path d="M8,16h4c0.553,0,1,0.447,1,1l0,0c0,0.553-0.447,1-1,1H8c-0.552,0-1-0.447-1-1l0,0C7,16.447,7.448,16,8,16z"/>
<path d="M8,11h8c0.553,0,1,0.448,1,1l0,0c0,0.553-0.447,1-1,1H8c-0.552,0-1-0.447-1-1l0,0C7,11.448,7.448,11,8,11z"/>
<path d="M8,6h4c0.553,0,1,0.448,1,1l0,0c0,0.552-0.447,1-1,1H8C7.448,8,7,7.552,7,7l0,0C7,6.448,7.448,6,8,6z"/>
<polygon opacity="0.3" fill="#5D5D5D" enable-background="new    " points="20,2 20,22 4,22 4,2 7,2 7,4.25 17.83,4.25 17.83,2 "/>
<rect x="8.438" y="-2.893" fill="#5D5D5D" width="10.83" height="1.08"/>
<rect x="6" y="2" fill="#FFFFFF" width="10.83" height="2.25"/>
<rect x="6.438" y="20.875" fill="#FFFFFF" width="10.83" height="2.25"/>
<rect x="19.268" y="8.375" fill="#FFFFFF" width="2" height="7.75"/>
</svg>
